<?xml version="1.0" encoding="UTF-8" standalone="no"?>
<svg
   version="1.1"
   width="57.388"
   height="59.761002"
   viewBox="0 0 57.388 59.761"
   id="svg12"
   sodipodi:docname="favicon.svg"
   inkscape:version="1.3.2 (091e20e, 2023-11-25, custom)"
   xmlns:inkscape="http://www.inkscape.org/namespaces/inkscape"
   xmlns:sodipodi="http://sodipodi.sourceforge.net/DTD/sodipodi-0.dtd"
   xmlns="http://www.w3.org/2000/svg"
   xmlns:svg="http://www.w3.org/2000/svg">
  <defs
     id="defs12">
    <clipPath
       id="clip3">
      <path
         d="m 113.58594,75 h 39.82812 v 39.78125 h -39.82812 z m 0,0"
         id="path3" />
    </clipPath>
  </defs>
  <sodipodi:namedview
     id="namedview12"
     pagecolor="#ffffff"
     bordercolor="#000000"
     borderopacity="0"
     inkscape:showpageshadow="2"
     inkscape:pageopacity="0.0"
     inkscape:pagecheckerboard="0"
     inkscape:deskcolor="#d1d1d1"
     inkscape:zoom="6.0703125"
     inkscape:cx="54.774775"
     inkscape:cy="49.83269"
     inkscape:window-width="1920"
     inkscape:window-height="991"
     inkscape:window-x="-9"
     inkscape:window-y="-9"
     inkscape:window-maximized="1"
     inkscape:current-layer="g2" />
  <g
     transform="matrix(0.44782609,0,0,0.44782609,4.8059955,0)"
     id="g11">
    <svg
       viewBox="0 0 125 225"
       data-background-color="#003366"
       preserveAspectRatio="xMidYMid"
       height="230"
       width="128"
       version="1.1"
       id="svg11">
      <g
         id="tight-bounds"
         transform="translate(-2.09e-4)">
        <svg
           viewBox="0 0 125 225"
           height="225"
           width="125"
           version="1.1"
           id="svg10">
          <g
             id="g1">
            <svg
               version="1.1"
               id="svg1"
               width="100%"
               height="100%" />
          </g>
          <g
             id="g10">
            <svg
               viewBox="0 0 125 225"
               height="225"
               width="125"
               version="1.1"
               id="svg9">
              <g
                 id="g2"
                 transform="matrix(0.70832091,0,0,0.70832091,6.5860441,-15.325849)">
                <rect
                   style="fill:#000000;fill-opacity:1;stroke-width:2.18447"
                   id="rect12"
                   width="149.702"
                   height="147.18294"
                   x="-10.731626"
                   y="39.988098"
                   ry="73.591469"
                   rx="74.131271" />
                <path
                   d="m 20.6,59.9 0.8,1 -0.4,-1.3 c -0.1,-0.6 -0.8,0.1 -0.4,0.3 m 0.9,-0.6 c 0.3,0.5 0.6,1 0.6,1.5 0,0.7 0.6,1 1.1,1.2 -0.7,-0.8 -1.1,-3 -1.7,-2.7 M 59.9,16.9 c 1.7,0 3.3,-0.2 5.1,0.2 4.4,1.1 8.1,3.3 10.6,6.4 l 7,11.2 c 0.3,2.8 0.9,5.9 0.8,9.3 0.7,0 0.6,-1 1.4,-1.2 -0.8,2 -1.2,4.5 -1.4,7.4 -0.5,-1.6 0,-4 0.1,-5.3 -0.7,1.1 -1.1,0.3 -1.1,-0.2 0.1,-0.8 -0.3,-0.7 -0.6,-1 -1.1,-1 -1.8,-2.1 -2.6,-3.8 0.5,-1.3 0.6,-3.2 -1,-4.2 C 77.7,35.4 77.1,34.9 76.8,34.1 76.4,33 75.7,31.7 75.9,30 76,29.5 74.4,31.1 73.5,30.4 69.6,27.7 65.7,24.6 61,22 c -2.5,0 -4.3,-0.9 -5.2,-2 -0.8,-1 -0.2,-2.3 1,-2.4 0.7,0 1.5,-0.2 2.1,0.2 0.1,-0.4 0.5,-0.9 1,-0.9 m -9.9,-2.3 0.2,0.1 c 1,0.2 1.5,1.6 2.6,1.1 0,0.7 0.1,1.4 -0.1,1.9 -0.3,0.8 -1.2,0.8 -1.9,0.8 -6.7,-0.4 -10.6,2.4 -14.7,4.8 -1.1,0.7 -2.3,1.2 -3.2,2.1 -4.3,4 -9,7.7 -10.1,15.1 l -0.9,8.2 c -0.1,0.9 -1.1,1.8 -0.9,2.9 l 0.7,4.9 c -0.7,-0.7 -1.1,0.2 -0.9,0.6 0.1,0.3 0.5,1.3 1.1,0.4 0.8,1.5 1.6,4.4 2.7,5.7 3.4,4 7.8,7.6 11.4,11.2 0.9,-0.2 1.6,-0.2 1.8,-0.8 0.3,0.6 -0.3,1.2 -0.8,1.3 1.6,1 3.4,1.9 5.8,2.1 3.1,0.2 6,0.7 8.7,1.4 1.4,-0.4 2.8,-0.6 4.3,-0.7 0.5,0 0.8,-0.8 1.4,-1 l 0.1,-1 c 0.6,0.9 0.5,-0.3 0.1,-0.9 0.7,0.6 0.9,1.1 1.2,1.5 0,-0.3 0.8,-1.4 0.8,-0.1 l 0.2,-1.3 c 0.3,-0.2 0.4,1.1 0.7,0.2 0.3,-0.9 0.9,-0.2 1.5,-0.5 -0.2,0.4 -0.1,1.2 0.6,0.7 l 0.8,-0.7 c 0.5,1.2 1.3,0.7 1.7,0.5 4.4,-2.8 8.8,-6.1 13,-9.4 l -0.1,1.3 0.5,-1.6 c 0.5,0.5 0.9,0.1 1.1,-0.2 0.6,-1 1.4,-2 2.7,-2.9 -1.6,4.3 -3.5,7.7 -5.9,10.5 l -1,1.2 c 0,0.7 -0.2,1.6 -1,1.7 -0.4,0.1 -1.2,-0.2 -1.8,0.4 -0.3,0.4 0.7,1.2 -0.1,0.6 -0.7,-0.5 -1.4,0 -2.2,0.2 -0.6,0.2 0.4,0.8 0.6,1.2 0.2,0.4 0.4,0.8 0.3,1.3 l -1.1,-1.2 c -1.3,0.7 -2.1,2 -3.2,3 -0.5,0.4 -0.3,1.1 -0.3,1.7 -0.7,0 -1.5,-0.2 -1.9,0.2 -0.3,0.4 -0.2,1 -0.2,1.6 -1,-0.1 -1.1,-1.6 -2,-1.3 -0.9,0.2 -1.9,0.3 -2.7,0.8 0.6,1.2 -1,0.5 -0.8,0.7 C 57.3,84 56,83.3 54.4,83.9 51,82.8 46.8,83.3 43.7,83.7 c 0,-0.5 0.1,-1 -0.1,-1.1 -0.2,0.5 -0.8,0.3 -0.7,0.3 -1.9,-1.3 -3.8,-2.1 -5.8,-3.2 -1.8,0.2 -3.5,-0.7 -4,-1.2 -1.4,-1.3 -3,-0.6 -4.3,-0.9 C 26,76.9 25,74 24.7,72 c -0.2,-1 -1,-1.4 -1.3,-1.3 -1.3,-4.2 -3.3,-8 -4.9,-11.9 -0.4,-1 -0.3,-2 -0.3,-3.1 0.5,0.2 1,0.1 0.9,-0.6 -0.5,-3.3 -1.7,-5.8 -3,-8.2 0.7,-3.4 0.8,-7.4 2.4,-10.4 1.4,-2.7 4,-4.1 5.8,-6.4 0.6,-0.8 0.6,-1.9 1.2,-2.6 2,-2 4,-4.1 6.2,-5.9 1,-0.8 2.2,0 3.7,-0.3 0.5,-1.8 2.5,-3.4 4.4,-2.9 0.8,0.2 2.4,-1.9 2.9,-2.1 0.8,-0.3 0.4,0.8 0.4,1.5 1.9,-1.5 4.5,-2.3 6.9,-3.2"
                   fill="#000000"
                   fill-rule="nonzero"
                   stroke="none"
                   stroke-width="1"
                   stroke-linecap="butt"
                   stroke-linejoin="miter"
                   stroke-miterlimit="10"
                   stroke-dasharray="none"
                   stroke-dashoffset="0"
                   font-family="none"
                   font-weight="none"
                   font-size="none"
                   text-anchor="none"
                   style="mix-blend-mode:normal;fill:#ffffff;fill-opacity:1"
                   data-fill-palette-color="tertiary"
                   id="path1"
                   transform="matrix(1.81951,0,0,1.81951,-29.29403,21.95688)" />
              </g>
            </svg>
          </g>
          <defs
             id="defs10" />
        </svg>
        <rect
           width="125"
           height="225"
           fill="none"
           stroke="none"
           visibility="hidden"
           id="rect10"
           x="0"
           y="0" />
      </g>
    </svg>
  </g>
</svg>
