<?xml version="1.0" encoding="UTF-8" standalone="no"?>
<svg
   width="267px"
   height="300px"
   viewBox="0 0 267 300"
   version="1.1"
   id="svg6"
   sodipodi:docname="logo.svg"
   inkscape:version="1.3.2 (091e20e, 2023-11-25, custom)"
   xmlns:inkscape="http://www.inkscape.org/namespaces/inkscape"
   xmlns:sodipodi="http://sodipodi.sourceforge.net/DTD/sodipodi-0.dtd"
   xmlns="http://www.w3.org/2000/svg"
   xmlns:svg="http://www.w3.org/2000/svg">
  <sodipodi:namedview
     id="namedview6"
     pagecolor="#000000"
     bordercolor="#000000"
     borderopacity="0.25"
     inkscape:showpageshadow="2"
     inkscape:pageopacity="0.0"
     inkscape:pagecheckerboard="0"
     inkscape:deskcolor="#d1d1d1"
     inkscape:zoom="2.59"
     inkscape:cx="133.59073"
     inkscape:cy="137.64479"
     inkscape:window-width="1920"
     inkscape:window-height="991"
     inkscape:window-x="-9"
     inkscape:window-y="-9"
     inkscape:window-maximized="1"
     inkscape:current-layer="surface1" />
  <defs
     id="defs3">
    <clipPath
       id="clip1">
      <path
         d="M 0.0390625 13 L 266.960938 13 L 266.960938 287 L 0.0390625 287 Z M 0.0390625 13 "
         id="path1" />
    </clipPath>
    <clipPath
       id="clip2">
      <path
         d="M 101.277344 128.816406 L 165.726562 128.816406 L 165.726562 225 L 101.277344 225 Z M 101.277344 128.816406 "
         id="path2" />
    </clipPath>
    <clipPath
       id="clip3">
      <path
         d="M 113.585938 75 L 153.414062 75 L 153.414062 114.78125 L 113.585938 114.78125 Z M 113.585938 75 "
         id="path3" />
    </clipPath>
  </defs>
  <g
     id="surface1">
    <g
       clip-path="url(#clip1)"
       clip-rule="nonzero"
       id="g4">
      <path
         style=" stroke:none;fill-rule:nonzero;fill:rgb(100%,100%,100%);fill-opacity:1;"
         d="M 17.523438 189.351562 L 20.632812 193.230469 L 19.078125 188.183594 C 18.6875 185.855469 15.96875 188.574219 17.523438 189.351562 M 21.019531 187.019531 C 22.1875 188.960938 23.351562 190.902344 23.351562 192.84375 C 23.351562 195.558594 25.683594 196.726562 27.625 197.5 C 24.90625 194.394531 23.351562 185.855469 21.019531 187.019531 M 170.214844 22.441406 C 176.820312 22.441406 183.039062 21.664062 190.03125 23.21875 C 207.125 27.488281 221.503906 36.027344 231.214844 48.058594 L 258.414062 91.53125 C 259.578125 102.402344 261.910156 114.433594 261.519531 127.632812 C 264.242188 127.632812 263.851562 123.75 266.960938 122.972656 C 263.851562 130.738281 262.296875 140.441406 261.519531 151.699219 C 259.578125 145.488281 261.519531 136.171875 261.910156 131.125 C 259.191406 135.394531 257.636719 132.289062 257.636719 130.347656 C 258.023438 127.242188 256.46875 127.632812 255.304688 126.46875 C 251.03125 122.585938 248.3125 118.316406 245.203125 111.71875 C 247.144531 106.671875 247.535156 99.296875 241.316406 95.414062 C 239.375 94.25 237.042969 92.308594 235.878906 89.203125 C 234.324219 84.933594 231.605469 79.886719 232.382812 73.289062 C 232.769531 71.347656 226.554688 77.558594 223.054688 74.84375 C 207.902344 64.363281 192.75 52.328125 174.488281 42.238281 C 164.777344 42.238281 157.78125 38.742188 154.285156 34.472656 C 151.179688 30.59375 153.507812 25.546875 158.171875 25.15625 C 160.890625 25.15625 164 24.382812 166.332031 25.933594 C 166.71875 24.382812 168.273438 22.441406 170.214844 22.441406 M 131.75 13.511719 L 132.527344 13.902344 C 136.414062 14.675781 138.355469 20.113281 142.628906 18.171875 C 142.628906 20.886719 143.019531 23.605469 142.242188 25.546875 C 141.078125 28.652344 137.578125 28.652344 134.859375 28.652344 C 108.828125 27.097656 93.675781 37.96875 77.746094 47.28125 C 73.472656 50 68.808594 51.941406 65.3125 55.433594 C 48.605469 70.960938 30.34375 85.324219 26.070312 114.046875 L 22.574219 145.875 C 22.1875 149.367188 18.300781 152.863281 19.078125 157.132812 L 21.796875 176.152344 C 19.078125 173.433594 17.523438 176.929688 18.300781 178.480469 C 18.6875 179.644531 20.242188 183.527344 22.574219 180.035156 C 25.683594 185.855469 28.789062 197.113281 33.066406 202.160156 C 46.273438 217.683594 63.371094 231.660156 77.355469 245.632812 C 80.855469 244.855469 83.574219 244.855469 84.351562 242.527344 C 85.515625 244.855469 83.183594 247.1875 81.242188 247.574219 C 87.460938 251.457031 94.453125 254.949219 103.777344 255.726562 C 115.820312 256.5 127.089844 258.441406 137.578125 261.160156 C 143.019531 259.605469 148.457031 258.832031 154.285156 258.441406 C 156.230469 258.441406 157.394531 255.335938 159.726562 254.5625 L 160.113281 250.679688 C 162.445312 254.171875 162.058594 249.515625 160.503906 247.1875 C 163.222656 249.515625 164 251.457031 165.164062 253.007812 C 165.164062 251.84375 168.273438 247.574219 168.273438 252.621094 L 169.050781 247.574219 C 170.214844 246.796875 170.605469 251.84375 171.769531 248.351562 C 172.9375 244.855469 175.265625 247.574219 177.597656 246.410156 C 176.820312 247.960938 177.210938 251.066406 179.929688 249.125 L 183.039062 246.410156 C 184.980469 251.066406 188.089844 249.125 189.644531 248.351562 C 206.738281 237.480469 223.832031 224.671875 240.152344 211.863281 L 239.761719 216.910156 L 241.707031 210.699219 C 243.648438 212.640625 245.203125 211.085938 245.980469 209.921875 C 248.3125 206.039062 251.417969 202.160156 256.46875 198.664062 C 250.253906 215.355469 242.871094 228.554688 233.546875 239.421875 L 229.660156 244.082031 C 229.660156 246.796875 228.882812 250.289062 225.777344 250.679688 C 224.222656 251.066406 221.113281 249.902344 218.78125 252.230469 C 217.617188 253.785156 221.503906 256.890625 218.394531 254.5625 C 215.675781 252.621094 212.953125 254.5625 209.847656 255.335938 C 207.515625 256.113281 211.398438 258.441406 212.175781 259.996094 C 212.953125 261.546875 213.730469 263.101562 213.34375 265.042969 L 209.070312 260.382812 C 204.019531 263.101562 200.910156 268.144531 196.636719 272.027344 C 194.695312 273.582031 195.46875 276.296875 195.46875 278.625 C 192.75 278.625 189.644531 277.851562 188.089844 279.402344 C 186.921875 280.957031 187.3125 283.285156 187.3125 285.613281 C 183.425781 285.226562 183.039062 279.402344 179.539062 280.566406 C 176.042969 281.34375 172.160156 281.730469 169.050781 283.671875 C 171.382812 288.332031 165.164062 285.613281 165.941406 286.390625 C 160.113281 282.894531 155.0625 280.179688 148.847656 282.507812 C 135.636719 278.238281 119.320312 280.179688 107.273438 281.730469 C 107.273438 279.792969 107.664062 277.851562 106.886719 277.460938 C 106.109375 279.402344 103.777344 278.625 104.164062 278.625 C 96.785156 273.582031 89.402344 270.476562 81.632812 266.207031 C 74.636719 266.980469 68.03125 263.488281 66.089844 261.546875 C 60.648438 256.5 54.433594 259.21875 49.382812 258.054688 C 38.503906 255.335938 34.617188 244.082031 33.453125 236.316406 C 32.675781 232.433594 29.566406 230.882812 28.402344 231.269531 C 23.351562 214.96875 15.582031 200.21875 9.363281 185.078125 C 7.808594 181.199219 8.199219 177.316406 8.199219 173.046875 C 10.140625 173.824219 12.085938 173.433594 11.695312 170.71875 C 9.753906 157.910156 5.089844 148.203125 0.0390625 138.890625 C 2.757812 125.691406 3.148438 110.164062 9.363281 98.519531 C 14.804688 88.039062 24.90625 82.605469 31.898438 73.679688 C 34.230469 70.574219 34.230469 66.300781 36.5625 63.585938 C 44.332031 55.824219 52.101562 47.671875 60.648438 40.683594 C 64.535156 37.578125 69.199219 40.683594 75.027344 39.519531 C 76.96875 32.53125 84.738281 26.320312 92.121094 28.261719 C 95.230469 29.039062 101.445312 20.886719 103.390625 20.113281 C 106.496094 18.945312 104.941406 23.21875 104.941406 25.933594 C 112.324219 20.113281 122.425781 17.007812 131.75 13.511719 "
         id="path4" />
    </g>
    <g
       clip-path="url(#clip2)"
       clip-rule="nonzero"
       id="g5"
       transform="matrix(1.2288095,0,0,1.2288095,-25.103723,-72.717665)">
      <path
         style="fill:#ffffff;fill-opacity:1;fill-rule:nonzero;stroke:none"
         d="m 101.27734,225 v -96.18359 h 62.58203 v 12.375 h -49.66796 v 29.26562 h 44.34375 v 12.37109 h -44.34375 v 29.80079 h 51.53125 V 225 Z m 0,0"
         id="path5" />
    </g>
  </g>
</svg>
